<svg xmlns="http://www.w3.org/2000/svg" xmlns:xlink="http://www.w3.org/1999/xlink" viewBox="0 0 666.36 694.67"><defs><style>.cls-1{fill:none;}.cls-2{isolation:isolate;}.cls-3{clip-path:url(#clip-path);}.cls-4{fill:#eb5599;}</style><clipPath id="clip-path" transform="translate(0 0)"><rect class="cls-1" width="666.32" height="694.67"/></clipPath></defs><g id="Layer_2" data-name="Layer 2"><g id="Layer_1-2" data-name="Layer 1"><g class="cls-2"><g class="cls-3"><path class="cls-4" d="M77.2,473.71A407.13,407.13,0,0,1,194,350.1l6-4c2-1.32,4-2.76,6-4l6-3.8,5.85-3.62c7.71-4.75,15.22-9.26,22.12-13.59-7.21,4.12-15,8.43-23,13.07-2,1.19-4,2.31-6,3.54l-6.15,3.73c-4.12,2.57-8.24,5.29-12.32,7.92a362.16,362.16,0,0,0-45.38,36A377,377,0,0,0,77.2,473.71M447.82,270.34a43,43,0,0,0,1.07-5.06,11.77,11.77,0,0,0,.1-1.45,11.77,11.77,0,0,1-.1,1.45,43,43,0,0,1-1.07,5.06m1-7.8a1.74,1.74,0,0,0-.41-.79,1.74,1.74,0,0,1,.41.79m-2.16-1.16.45-.05-.45.05m.61-.05h0M560.77,0a255.3,255.3,0,0,1,31,1.87A221.73,221.73,0,0,1,627.1,9.13c19.47,6.14,30.71,14.43,35.9,22.45a23.16,23.16,0,0,1,2.79,6,18,18,0,0,1,.53,5.84,22,22,0,0,1-4.09,11.09,41.93,41.93,0,0,1-10.65,9.82,93.11,93.11,0,0,1-15.93,8.38c-1.52.64-3.07,1.25-4.68,1.84s-3.24,1.22-4.94,1.8c-3.35,1.12-6.88,2.24-10.54,3.27s-7.48,2.06-11.4,2.91-8,1.77-12.16,2.64c-.2,3.44-.63,10.31-.83,13.74,1.9-.09,3.72-.13,5.45-.13,12.69,0,20.93,2.27,25.8,5.28a15.78,15.78,0,0,1,3.45,2.77,12.07,12.07,0,0,1,2.09,3.15,14,14,0,0,1,1,7c-.42,4.95-2.62,10.35-4.38,15.66s-3.1,10.54-2.14,15.08c-3.46-.66-6.89-1.1-10.34-1.54s-6.88-.69-10.28-.78c-1.6-.08-3.18-.11-4.76-.11-1.81,0-3.61,0-5.42.09s-3.35.2-5,.32-3.32.31-5,.53-3.29.41-4.9.74-3.21.63-4.81,1-3.15.81-4.71,1.23l-2.33.67-2.28.78a75.65,75.65,0,0,0-17,8.25c-.7.1-1.49.23-2.34.37l-1.34.19-1.37.28c-1.86.39-4,.7-5.89,1.21l-2.88.66c-1,.2-1.85.51-2.73.74-1.76.48-3.36.88-4.59,1.33-14.75,4.56-28.11,11.58-37.58,19.26a65.29,65.29,0,0,0-11.19,11.5,43.82,43.82,0,0,0-4.15,6.44c-.35.67-.72,1.22-1.05,2l-1.05,2.1c-.68,1.55-1.4,3-2.09,4.75s-1.39,3.53-2.1,5.36c-.68,2-1.38,3.9-2.07,6.07-1.39,4.26-2.76,8.88-4.16,14-2.82,10.12-5.69,21.82-9.35,34.89-1.85,6.58-3.84,13.4-6.27,20.65s-5.17,14.74-8.48,22.52a240.34,240.34,0,0,1-11.79,23.78,207.48,207.48,0,0,1-15.91,23.74,192.89,192.89,0,0,1-19.82,21.64c-1.76,1.75-3.53,3.21-5.31,4.76l-5.37,4.57c-1.8,1.47-3.57,2.79-5.37,4.16s-3.6,2.75-5.39,4a298.06,298.06,0,0,1-41,24c-12.81,6.3-24.61,11.4-35.23,16.11s-20,9-27.92,13.12a225,225,0,0,0-22.4,13.76c-1.82,1.24-3.55,2.64-5.33,3.94l-2.66,2-2.58,2.12c-1.71,1.43-3.48,2.77-5.15,4.24l-5,4.46c-.85.72-1.64,1.51-2.45,2.29l-2.42,2.34-2.43,2.34c-.78.8-1.54,1.63-2.33,2.44-1.54,1.66-3.14,3.23-4.64,4.93l-4.47,5.1a234,234,0,0,0-16.42,21.8,233.17,233.17,0,0,1,20.73-28.28,218.64,218.64,0,0,1,24.4-24.3,206.93,206.93,0,0,1,27.48-19.75l3.61-2.17,3.85-2.12,1.94-1.07,2.09-1.07,4.18-2.16,4.49-2.21,2.25-1.1,2.39-1.14,4.77-2.27,5-2.34L301.11,430l5.51-2.6,2.77-1.31,2.87-1.39,5.76-2.81,6-3c1-.52,2-1,3-1.54l3.08-1.65c2.06-1.12,4.08-2.16,6.17-3.36,4.24-2.45,8.41-4.78,12.79-7.6l3.24-2,1.62-1,1.66-1.14,6.59-4.56c1.09-.73,2.21-1.61,3.32-2.45l3.32-2.55,3.31-2.57c1.1-.86,2.21-1.86,3.31-2.79,2.21-1.9,4.4-3.8,6.57-5.73,2.17-2.09,4.32-4.21,6.47-6.33a186.6,186.6,0,0,0,22.76-28.08,215.73,215.73,0,0,0,16.44-29.82,295.79,295.79,0,0,0,11.11-28.47c3-9.08,5.57-17.69,7.86-25.75a23.12,23.12,0,0,1-3.68.76c-1.33,0-2.43-.7-2.73-3.4-6.29,15.74-12.71,33.61-22,52.46a232.25,232.25,0,0,1-16.49,28.37,186.8,186.8,0,0,1-22,26.59,203.07,203.07,0,0,1-25.1,21.44l-6.31,4.5c-2.1,1.42-4.16,2.74-6.25,4.12l-3.12,2-3.07,1.86c-2,1.23-4.1,2.51-6.12,3.69-4,2.25-8,4.63-11.86,6.66-1.93,1-3.93,2.15-5.79,3.13l-5.65,3L285.2,427.41l-9.76,5-4.58,2.45-2.28,1.21-2.16,1.21-4.27,2.39-4,2.37-2,1.17-1.86,1.21-3.74,2.39A292,292,0,0,0,222,468.16c-18.28,15.42-35.21,32.92-51.86,52l11.18,7.88L178,533.43l-3.15,5.49c-1.1,1.81-2,3.7-3,5.57l-1.47,2.8-.74,1.41-.68,1.43-2.71,5.71c-.9,1.91-1.71,3.93-2.57,5.88l-1.27,2.94-1.17,3c-.76,2-1.58,4-2.31,6-3,8.12-5.47,16.48-7.67,25S147.37,616,146,624.88a47.79,47.79,0,0,1-1.52,5.31c-.59,1.72-1.29,3.38-2,5a73.68,73.68,0,0,1-5,9.42,104,104,0,0,1-6.16,8.69c-2.17,2.79-4.58,5.44-6.92,8a253.86,253.86,0,0,1,8.16-86.81l.72-2.66.8-2.63L135.7,564c1.13-3.5,2.41-6.94,3.62-10.44,1.38-3.4,2.69-6.89,4.15-10.25l2.24-5,1.13-2.52,1.22-2.47a244.3,244.3,0,0,1,23.08-38.06c1.06-1.54,2.23-3,3.38-4.47l3.47-4.41c2.36-2.88,4.82-5.69,7.24-8.55l3.81-4.11,1.91-2.06c.63-.69,1.27-1.37,1.94-2l4-3.95,2-2c.67-.64,1.37-1.26,2.05-1.9a248.12,248.12,0,0,1,35.18-27.4c3.07-2.11,6.31-3.88,9.49-5.8l2.38-1.42,2.51-1.37c1.7-.91,3.28-1.83,5.08-2.73l5.27-2.74,5.49-2.73L277.76,412c4-1.93,8-3.87,12-5.79s8.22-4,12.47-6.26c8.44-4.34,17.1-9,25.87-14.59l-5.68,3.21-5.67,3L313.88,393l-2.82,1.36-5.66,2.73c-7.46,3.45-14.93,6.72-22.11,9.77s-14.25,6-20.87,9c-3.41,1.48-6.53,3-9.78,4.48l-4.61,2.3c-.77.38-1.55.75-2.29,1.15l-2.21,1.2c-23.67,12.56-45,30.18-60,50.55-5.56,7.08-11,14-15.91,21.24-2.57,3.52-4.88,7.2-7.29,10.76-.6.88-1.17,1.79-1.73,2.72L157,513c-1.11,1.83-2.31,3.59-3.35,5.45-2.11,3.7-4.33,7.29-6.26,11-1,1.86-2,3.69-3,5.54s-1.85,3.73-2.79,5.6l-1.38,2.79-1.31,2.85-2.61,5.67-2.42,5.75c-.8,1.92-1.62,3.82-2.33,5.77a262,262,0,0,0-13.63,47.49,233.64,233.64,0,0,0-4,49.34c.22,3.62.47,7.25.86,10.9-2.18,2.12-4.4,4.14-6.49,6.09s-4.1,3.86-6,5.61a72,72,0,0,1-14.57,8.63,36.68,36.68,0,0,1-14.22,3.2c-.42,0-.85,0-1.27,0a24.88,24.88,0,0,1-15-5.88,35.78,35.78,0,0,1-6.79-7.54A59.57,59.57,0,0,1,44.62,670c.45-4.22,1-10.57,1.73-15.84.35-2.63.64-5,.87-6.72s.41-2.76.41-2.76a20.13,20.13,0,0,0-11.87-3.29,61.83,61.83,0,0,0-9.15.87,421.46,421.46,0,0,1,15.62-86,393.81,393.81,0,0,1,14.91-42A376.9,376.9,0,0,1,77.2,473.71,400.28,400.28,0,0,0,55.8,513.8a415,415,0,0,0-16.59,42A441.5,441.5,0,0,0,19.8,643.11c-1.17.11-2.31.18-3.43.18-6.88,0-12.57-2.7-15-14.85-3.51-10.08.17-31.39,7.66-54.34,1-2.85,1.92-5.75,2.89-8.66s2.13-5.81,3.19-8.72c.54-1.45,1-2.91,1.62-4.35l1.71-4.32c1.15-2.86,2.22-5.74,3.38-8.53,2.36-5.61,4.51-11.11,6.73-16.3,1.07-2.6,2.06-5.16,3-7.63s1.93-4.85,2.77-7.16q.78-2.42,1.57-4.85c.57-1.6,1.16-3.21,1.73-4.82,1.2-3.21,2.33-6.45,3.67-9.65s2.69-6.41,4.07-9.62,3-6.35,4.47-9.53a308.39,308.39,0,0,1,21.24-37,347,347,0,0,1,57.47-66c2.71-2.54,5.59-4.9,8.43-7.31s5.67-4.83,8.65-7.08l8.87-6.86,9.14-6.54c3-2.21,6.19-4.23,9.33-6.29s6.24-4.16,9.5-6l9.68-5.8c3.19-1.83,6.37-3.58,9.54-5.36,12.44-6.78,23.81-12.51,33.8-17.95s18.58-10.54,25.24-15.52c2.57-1.77,4.56-3.44,6.73-5.05.91-.79,1.82-1.56,2.75-2.31l.7-.55.57-.55,1.14-1.05a43.11,43.11,0,0,0,6.3-6.78,59.77,59.77,0,0,0,3.83-5.73,87.13,87.13,0,0,0,4.78-9.52c1.79-4.09,3.72-9.18,5.75-15.23s4.15-13,6.44-20.81c4.67-15.59,9.93-34.49,18.52-55.71l1.16-2.71,1.23-2.77,2.52-5.57q1.35-2.85,2.72-5.7c.87-1.88,1.93-3.85,2.9-5.77l1.49-2.89c.49-1,1.06-2,1.59-2.93,1.08-2,2.13-3.9,3.27-5.87,2.34-3.93,4.66-7.85,7.3-11.78,2.48-3.93,5.4-7.77,8.19-11.61.71-1,1.39-1.94,2.13-2.85L355,95.75l4.46-5.43c.75-.92,1.51-1.79,2.29-2.63L364,85.13l4.69-5.08c3.2-3.22,6.43-6.42,9.71-9.52A258.87,258.87,0,0,1,420,39.39a275.8,275.8,0,0,1,44-21.46l5.59-2.11,5.61-1.9,5.61-1.84,5.64-1.64,5.65-1.58,5.66-1.39,5.65-1.32,5.53-1.1A271.29,271.29,0,0,1,552,.15Q556.42,0,560.77,0" transform="translate(0 0)"/></g></g></g></g></svg>