<svg xmlns="http://www.w3.org/2000/svg" viewBox="0 0 528.59 513.65"><defs><style>.cls-1{fill:#cbc8e2;}</style></defs><g id="Layer_2" data-name="Layer 2"><g id="Isolation_Mode" data-name="Isolation Mode"><path class="cls-1" d="M520.68,458.62c-3.75.89-7.44,1.85-11.14,2.67-8.48,2-16.74,4.39-25.14,6.25-8.3,2.14-16.71,3.8-25,5.7-4.18.88-8.41,1.6-12.6,2.44l-6.3,1.23-6.37,1c-4.25.65-8.48,1.42-12.75,2l-12.89,1.56-3.24.39-3.25.26-6.53.51-6.55.5c-1.09.1-2.19.15-3.29.17l-3.31.1c-4.41.13-8.83.28-13.27.33s-8.93-.2-13.42-.34l-3.37-.12c-1.12-.05-2.25-.16-3.38-.24l-6.77-.57-6.8-.63c-2.27-.21-4.54-.62-6.82-.93l-6.83-1.05-3.42-.55-1.71-.28-1.71-.36q-6.84-1.47-13.7-3.09c-1.59-.42-3.17-.93-4.77-1.44l-4.79-1.49c-3.2-1-6.43-1.92-9.67-2.87s-6.45-2.13-9.7-3.17-6.53-2-9.8-3.15c-13.12-4.44-26.22-9.35-39-14.9-25.57-11.12-50.1-24.82-70.66-41,1.44,1.3,2.92,2.55,4.42,3.78l4.5,3.71,4.6,3.59,2.32,1.79,2.36,1.74,4.73,3.45,4.84,3.33c3.21,2.26,6.56,4.31,9.86,6.45,6.71,4.11,13.52,8.12,20.56,11.74,3.49,1.89,7.09,3.57,10.65,5.34l5.42,2.49c1.81.83,3.62,1.66,5.47,2.42l5.51,2.33c1.85.76,3.72,1.47,5.58,2.21,3.71,1.49,7.52,2.78,11.29,4.15,1.9.66,3.81,1.27,5.72,1.9s3.83,1.26,5.75,1.79l11.54,3.29,2.89.82c1,.27,1.94.47,2.91.7l5.84,1.36,5.84,1.35,2.92.67c1,.22,2,.37,2.94.56l11.78,2.15,3,.53c1,.16,2,.28,3,.42l5.91.8,5.93.8,3,.4c1,.12,2,.19,3,.29L348.46,485l3,.28c1,.07,2,.1,3,.16l6,.3,5.94.31,3,.15c1,0,2,0,3,.05,7.91.07,15.87.31,23.76,0l5.93-.14c2,0,4-.06,5.93-.22l11.84-.69c4-.16,7.88-.6,11.81-.95s7.89-.66,11.82-1.1l11.76-1.44c2-.25,3.94-.44,5.9-.73l5.85-.91,11.76-1.76,11.69-2.12,5.88-1c2-.36,3.88-.8,5.83-1.2l11.71-2.41a94.43,94.43,0,0,1-6.94,9.35,64.25,64.25,0,0,1-8.56,8.58,73.86,73.86,0,0,1-10.34,7.19c-.93.54-1.88,1.07-2.86,1.56s-2,.91-3,1.33c-2,.85-4.14,1.62-6.33,2.29l-8,1.83c-2.68.58-5.39,1-8.08,1.55l-8.07,1.5-4,.74-4.06.59c-5.4.77-10.77,1.61-16.15,2.29L411.08,512a465.36,465.36,0,0,1-64.65.94c.07-3.63.22-10.73.29-14.3-29.48,2.07-59.14-1.81-87.24-10.3a278.21,278.21,0,0,1-40.91-16.17A331.28,331.28,0,0,1,181,450.66a411.89,411.89,0,0,1-34.51-25.61q-16.58-13.64-32-28.8c-10.3-10.08-20.3-20.62-30.15-31.64S64.86,342,55.26,329.79c.52,4.75-3.3,4-5.79,4.34l-.46-.76.46.76c-2.17.28-3.35,1.56.71,8.34-4.06-6.78-2.88-8.06-.71-8.34a360.46,360.46,0,0,0,26.33,37.3,381.27,381.27,0,0,0,30,32.92,387.64,387.64,0,0,0,68.81,53.49,380,380,0,0,0,79.62,36.89l2.65.87,2.65.79,5.32,1.57,10.68,3.1,10.8,2.61,5.43,1.29c.9.21,1.81.44,2.72.63l2.73.52,11,2.07c1.84.33,3.68.7,5.52,1l5.53.78,11.13,1.53c1.87.29,3.73.43,5.59.61l5.61.51A413.91,413.91,0,0,1,272.39,502c-5.67-1.48-11.32-3-17-4.51L247,494.88l-8.37-2.79q-16.67-5.77-32.62-13t-31.1-15.86q-15.12-8.67-29.42-18.69A361.26,361.26,0,0,1,92.23,399a341.07,341.07,0,0,1-43.91-56.27,322.74,322.74,0,0,1-17.47-32l-2-4.16c-.64-1.4-1.24-2.81-1.86-4.22-1.22-2.82-2.48-5.65-3.59-8.48l-1.7-4.26-1.61-4.29c-1.1-2.85-2.07-5.75-3.08-8.63A321.52,321.52,0,0,1,1.51,204.77C.89,198.61.5,192.41.22,186.2l-.14-4.67L0,179.19l0-2.47v-5l.11-5c.21-6.63.61-13.26,1.32-19.89.31-3.32.77-6.64,1.2-10s1-6.65,1.62-10C5,122.42,6.48,115.6,8.18,108.8S12,95.17,13.54,90.63C24.77,74.2,36.17,58.29,49.15,42.89A305.28,305.28,0,0,1,70,20.47,233.87,233.87,0,0,1,94.11,0c.53,5.21,4.53,9.25,8.83,13.27s8.91,8,11.5,12.55A15.62,15.62,0,0,1,116.66,33a13.4,13.4,0,0,1-.39,3.88A18.07,18.07,0,0,1,114.75,41a39,39,0,0,1-2.82,4.64c-1.2,1.62-2.56,3.39-4.21,5.27-3.26,3.79-7.54,8.13-12.75,13.6l11.54,8.62A52.94,52.94,0,0,1,124.43,65a41.34,41.34,0,0,1,16.75-.67,36.25,36.25,0,0,1,23,14.13,30.71,30.71,0,0,1,6.58,10.42,27.78,27.78,0,0,1,.87,2.86c.12.48.22,1,.31,1.47l.13.73.23.69c.6,1.83,1.12,3.64,1.57,5.39.23.88.44,1.73.64,2.57l.58,2.54c.15.75.32,1.55.49,2.4s.31,1.6.44,2.34a44.34,44.34,0,0,1,.84,8.23,41.65,41.65,0,0,1-1.36,8c-.74,2.72-1.72,5.8-2.91,9.2s-2.45,7.32-3.72,11.56-2.4,8.95-3.3,13.88A112.19,112.19,0,0,0,163.84,176l-.05,1c0,.33,0,.73,0,1.1l0,2.23c0,1.5,0,3,0,4.49.12,3,.28,6,.62,9a94.31,94.31,0,0,0,10,34.29c.92,1.91,1.83,3.82,2.81,5.69l.72,1.4.76,1.35,1.48,2.71c2.11,3.57,4.19,7.12,6.52,10.57s4.71,6.87,7.13,10.27,5,6.71,7.72,10c5.25,6.62,10.85,13.09,16.61,19.62s11.75,13.08,17.88,19.88a128.73,128.73,0,0,0,29.84,24.7,170.55,170.55,0,0,0,17.6,9.3c3,1.4,6.11,2.66,9.21,3.89,1.56.58,3.09,1.22,4.69,1.77l4.84,1.59a301.56,301.56,0,0,0,40.39,10.14c13.92,2.64,28.2,4.45,42.77,6.26,1.32.07,2.69.11,4.11.05s2.87-.28,4.36-.49,3-.46,4.57-.74a45.37,45.37,0,0,0,4.72-1c3.16-.85,6.37-1.79,9.58-2.72S419,360,422.11,359s6.06-2.17,8.93-3.08c1.43-.46,2.83-.88,4.2-1.24.68-.19,1.36-.34,2-.52s1.3-.37,1.94-.52a29.3,29.3,0,0,1,7.11-1,15.77,15.77,0,0,1,3.13.29,12.23,12.23,0,0,1,2.76.79c8.93,1.89,12.42,8.76,14.58,17.11A310.6,310.6,0,0,1,413,386.31a257,257,0,0,1-54.77,4.52c-5.57-.27-11.07-1.12-16.55-1.78l-2.06-.26c-.68-.09-1.36-.24-2-.36l-4.07-.74-4.05-.74c-1.34-.26-2.7-.43-4-.79l-8-1.93c-1.32-.32-2.65-.61-3.95-1l-3.89-1.19-7.74-2.36c-2.54-.9-5-1.87-7.55-2.8s-5-1.83-7.42-2.92c-1.21-.53-2.42-1-3.62-1.58l-3.58-1.68c-2.39-1.09-4.71-2.38-7.06-3.54s-4.62-2.5-6.87-3.85a185.19,185.19,0,0,1-25.57-18,149.05,149.05,0,0,0,24.57,19.13l1.67,1,1.7,1,3.42,2c2.31,1.25,4.64,2.52,7,3.68s4.77,2.33,7.22,3.35c1.22.52,2.43,1.07,3.67,1.56l3.78,1.4,7.63,2.78c2.6.79,5.22,1.52,7.85,2.28l3.95,1.12c1.32.41,2.68.62,4,.93l8.1,1.73c1.34.32,2.72.51,4.09.71l4.13.61,4.14.6,2.08.3,2.09.19c5.59.44,11.19,1.07,16.86,1.08,36.21,2.76,73.84-2.09,110.15-13.12,1.58,7.29,3.14,14.94,8.15,20.56l1.9-.78c1.17-.5,2.82-1.13,4.6-1.94l10.64-5c1,.18,1.89.37,2.81.58s1.78.37,2.64.59a48.86,48.86,0,0,1,4.92,1.48,41.73,41.73,0,0,1,8.42,4.12,33.82,33.82,0,0,1,11.39,12.06c5.27,9.42,5.85,21.34,3.32,32.83-.86,2.48-1.76,5.24-2.85,7.93S522,455.72,520.68,458.62Z"/></g></g></svg>