<svg xmlns="http://www.w3.org/2000/svg" xmlns:xlink="http://www.w3.org/1999/xlink" viewBox="0 0 313.65 635.29"><defs><style>.cls-1{fill:none;}.cls-2{isolation:isolate;}.cls-3{clip-path:url(#clip-path);}.cls-4{fill:#f27fb2;}</style><clipPath id="clip-path" transform="translate(-10.18 -4.24)"><rect class="cls-1" x="5.52" y="2.73" width="318.51" height="635.3" transform="translate(-5.57 2.92) rotate(-1)"/></clipPath></defs><g id="Layer_2" data-name="Layer 2"><g id="Isolation_Mode" data-name="Isolation Mode"><g class="cls-2"><g class="cls-3"><path class="cls-4" d="M316.81,229.5c-.09-.49-.19-.94-.29-1.37.1.43.2.88.29,1.37m-5-6.71.15-.09-.15.09m4.49,4.52c-.87-3.43-1.8-4.75-2.76-5,1,.25,1.89,1.57,2.76,5m-3.13-5h0M73.35,4.28q6.24-.11,12.39.1A303.26,303.26,0,0,1,116.25,7c19.95,2.67,39.09,6.79,58.45,11.41,4.21,2.31,10.29,6,16.18,9.85s11.48,8,15.11,10.8c2.7,2,5.28,4.18,7.89,6.3s5.13,4.31,7.59,6.56c5,4.44,9.73,9.08,14.35,13.85l3.42,3.6,3.34,3.7,1.65,1.84,1.52,1.77,3,3.55c4,4.79,7.85,9.63,11.52,14.62a321.15,321.15,0,0,1,36.82,63.69c1.2,2.81,2.42,5.61,3.53,8.46l1.69,4.26,1.6,4.3c1.08,2.84,2.05,5.78,3.05,8.68.48,1.46,1,2.92,1.45,4.38l1.35,4.4a327.79,327.79,0,0,1,8.59,35.46,341.31,341.31,0,0,1,5.3,71.18,362.17,362.17,0,0,1-8.84,69.46q-3.84,17-9.23,33.61t-12.36,32.65q-6.94,16.06-15.4,31.56l-4.33,7.7-4.53,7.6c-3.13,4.94-6.33,9.83-9.53,14.74a414.64,414.64,0,0,1-44,54.33l3.8-4.15c1.26-1.38,2.54-2.74,3.73-4.2l7.22-8.62,3.57-4.3c1.16-1.46,2.28-3,3.41-4.44q3.39-4.47,6.73-8.91l1.67-2.22c.56-.76,1.07-1.53,1.6-2.3l3.15-4.6q3.12-4.6,6.25-9.19c1.95-3.16,3.88-6.32,5.82-9.47l2.88-4.74,1.44-2.36,1.38-2.43a379.8,379.8,0,0,0,34.16-80.83,387.7,387.7,0,0,0,15-85.85,381.94,381.94,0,0,0,.06-44.51,358.5,358.5,0,0,0-5.57-45.31c-.06-.31-.11-.6-.17-.88.06.28.11.57.17.88-1.33.9-2.76,2.51-4.35,2.53-.9,0-1.84-.47-2.85-1.86,1.09,15.48,1.74,30.52,1.88,45.31s-.22,29.31-1.06,43.7-2.25,28.65-4.32,42.81a412.08,412.08,0,0,1-8.35,42.15,330.7,330.7,0,0,1-13.4,41.22,278.09,278.09,0,0,1-19.43,39.46c-15.1,25.18-34.45,48-57.67,66.26L212,554.83a463.6,463.6,0,0,1-48.5,42.75l-13.11,9.63c-4.44,3.12-9,6.1-13.5,9.17l-3.4,2.28L130,620.82l-7,4.31c-2.33,1.42-4.65,2.91-7,4.29l-7.19,4.05c-2.06,1-4.14,1.82-6.22,2.55-1,.37-2.08.72-3.12,1s-2.11.54-3.16.77a74.65,74.65,0,0,1-12.49,1.63c-.64,0-1.28.06-1.92.07a68.86,68.86,0,0,1-10.19-.68,92.87,92.87,0,0,1-11.41-2.26L70.6,630.5c1.71-1,3.43-2,5.12-3l5-3.18L90.85,618l9.89-6.6,5-3.26c1.64-1.1,3.24-2.29,4.85-3.43l9.69-6.83c3.2-2.31,6.31-4.77,9.49-7.12s6.33-4.69,9.38-7.24l9.23-7.44c1.55-1.21,3-2.53,4.53-3.83l4.5-3.89c6.06-5.06,11.78-10.58,17.59-16,.72-.68,1.47-1.33,2.17-2l2.1-2.11,4.2-4.23,4.2-4.21c.69-.71,1.4-1.39,2.08-2.12l2-2.2,8.06-8.79c.66-.73,1.35-1.46,2-2.21l1.92-2.29,3.84-4.58,3.85-4.56c.63-.77,1.29-1.51,1.91-2.3l1.82-2.38,7.28-9.5c.6-.8,1.22-1.57,1.8-2.39l1.72-2.46,3.41-4.93,3.42-4.92c.56-.83,1.15-1.64,1.68-2.48l1.59-2.55,6.33-10.2c1.08-1.68,2.06-3.43,3.06-5.19s2-3.49,3-5.24c1.87-3.55,3.82-7.06,5.56-10.67.89-1.79,1.79-3.57,2.65-5.38l2.52-5.44c.86-1.79,1.65-3.62,2.43-5.46l2.33-5.49c1.46-3.7,3-7.36,4.3-11.1,2.78-7.42,5.13-15,7.34-22.52,1-3.81,2.1-7.57,3-11.4l1.35-5.71,1.18-5.75.58-2.86.51-2.89,1-5.75.83-5.77q.44-2.88.74-5.77c-4.36,25.78-13.32,52.42-24.77,77.84-5.77,12.72-12.17,25.16-18.89,37.25-1.63,3.08-3.45,5.95-5.14,8.92s-3.4,5.91-5.06,8.88-3.52,5.74-5.23,8.62c-.86,1.45-1.7,2.89-2.55,4.32s-1.66,2.9-2.57,4.28q-4,5.81-8.06,11.48l-1,1.42-1.08,1.36-2.16,2.71L203.78,519c-1.47,1.77-2.88,3.59-4.42,5.28s-3.08,3.35-4.61,5-3.09,3.32-4.64,5c-.78.83-1.54,1.67-2.33,2.46l-2.42,2.34q-4.85,4.7-9.71,9.27c-3.32,3-6.7,5.82-10.05,8.69l-2.51,2.15c-.83.72-1.68,1.42-2.55,2.08l-5.18,4-5.19,4-2.58,2-2.65,1.88-10.6,7.51c-3.55,2.45-7.2,4.72-10.78,7.1l-5.39,3.53-5.49,3.33c-3.67,2.19-7.29,4.5-11,6.66-7.43,4.19-14.78,8.61-22.36,12.62-7.48,4.25-15.17,8.07-22.82,12.26-3.29,1.87-6.67,3.64-10,5.5-2.95-1.24-5.75-2.54-8.37-3.83s-5.13-2.71-7.44-4c-9.59-6.81-17.18-16-19.61-26.54a33.75,33.75,0,0,1,.33-16.59,42.26,42.26,0,0,1,3.47-8.71,50.35,50.35,0,0,1,2.65-4.4c.49-.74,1-1.47,1.55-2.21s1.1-1.54,1.7-2.31L32,559.68c1.87-.59,3.5-1.24,4.71-1.65l1.93-.69c-.06-7.54-4.05-14.25-7.78-20.72,34.3-16.22,65.42-37.93,90.38-64.3,4.19-3.81,7.92-8.05,11.75-12.14l1.43-1.53,1.33-1.62,2.67-3.23,2.64-3.23c.88-1.07,1.78-2.13,2.56-3.27l4.84-6.73c.78-1.13,1.65-2.2,2.35-3.39l2.17-3.49c1.44-2.32,2.89-4.63,4.27-7s2.53-4.79,3.78-7.18l1.87-3.57c.59-1.21,1.12-2.43,1.67-3.63,1.13-2.41,2.1-4.89,3.1-7.34s1.84-5,2.72-7.44l1.2-3.77.59-1.87.53-1.91A148.35,148.35,0,0,0,178,359.35a184.12,184.12,0,0,1-6.84,30.5c-.76,2.51-1.66,5-2.5,7.48s-1.81,4.94-2.85,7.35l-1.52,3.66c-.51,1.21-1.08,2.39-1.62,3.6-1,2.42-2.3,4.77-3.53,7.15s-2.44,4.77-3.71,7.14l-4.14,6.95-2.08,3.5c-.72,1.14-1.52,2.25-2.27,3.38l-4.6,6.76c-.73,1.17-1.63,2.2-2.45,3.31l-2.5,3.26-2.51,3.28c-.42.54-.83,1.11-1.27,1.64l-1.35,1.57c-3.61,4.17-7.11,8.5-11.06,12.44a257,257,0,0,1-43.6,33.47,311.5,311.5,0,0,1-50.19,24.74c-4-7.64-6.05-15.07-.7-22.47a13.5,13.5,0,0,1,1.51-2.45,16.86,16.86,0,0,1,2.12-2.31,29.25,29.25,0,0,1,5.92-4.06c.58-.31,1.17-.62,1.78-.92s1.21-.65,1.85-1c1.26-.65,2.57-1.28,3.94-1.9,2.74-1.25,5.74-2.33,8.68-3.73s6.09-2.57,9.15-3.94,6-2.95,8.93-4.44a46.93,46.93,0,0,0,4.18-2.4c1.34-.83,2.64-1.68,3.88-2.53s2.45-1.69,3.57-2.56a40.71,40.71,0,0,0,3-2.8c9.58-11.14,18.93-22.08,27.46-33.39A299.26,299.26,0,0,0,135.81,405l2.51-4.44c.82-1.48,1.53-3,2.29-4.46,1.47-3,2.91-6,4.2-9.07a166.7,166.7,0,0,0,6.79-18.71A128.85,128.85,0,0,0,157.09,330c0-9.15,0-18-.11-26.73s-.33-17.27-.89-25.7c-.21-4.24-.64-8.4-1-12.59s-.93-8.3-1.63-12.38-1.42-8.16-2.27-12.21l-.72-3-.35-1.5-.41-1.53c-.52-2-1.14-4.06-1.74-6.1a94.47,94.47,0,0,0-15.67-32.08c-1.76-2.45-3.67-4.78-5.6-7.09-1-1.12-2-2.26-3-3.36l-1.53-1.63c-.25-.26-.52-.57-.76-.8l-.68-.68a114.18,114.18,0,0,0-11.57-10.12c-4-3-8-5.71-11.78-8s-7.35-4.34-10.52-6.06-6-3.34-8.34-4.86a42.16,42.16,0,0,1-6.37-5,44.54,44.54,0,0,1-4.9-6.67c-.41-.63-.83-1.31-1.25-2s-.86-1.45-1.24-2.11l-1.29-2.27c-.41-.76-.83-1.53-1.25-2.33-.84-1.6-1.67-3.29-2.46-5.05-.1-.22-.19-.45-.29-.66s-.27-.43-.41-.63c-.25-.43-.51-.86-.75-1.31a27.83,27.83,0,0,1-1.28-2.7,30.87,30.87,0,0,1-2.13-12.13A36.3,36.3,0,0,1,62.5,84.69,41.54,41.54,0,0,1,75.36,73.93a53,53,0,0,1,18.76-6c.69-3.53,2.06-10.6,2.76-14.13-7.55-.55-13.63-.89-18.59-1.51-2.49-.28-4.68-.68-6.65-1.07a39.39,39.39,0,0,1-5.21-1.54,18.23,18.23,0,0,1-4-2.1A13.7,13.7,0,0,1,59.58,45a15.5,15.5,0,0,1-3.15-6.79c-1.13-5.08-.43-11.14.08-17s.73-11.54-2.38-15.77c6.44-.66,12.86-1,19.22-1.14" transform="translate(-10.18 -4.24)"/></g></g></g></g></svg>