<svg xmlns="http://www.w3.org/2000/svg" viewBox="0 0 735.68 628.5"><defs><style>.cls-1{fill:#f9c400;}</style></defs><g id="Layer_2" data-name="Layer 2"><g id="Layer_1-2" data-name="Layer 1"><path class="cls-1" d="M628.29,610.25c-.08-3.68-.3-7.31-.54-10.92a235,235,0,0,0-10.32-48.42,262.72,262.72,0,0,0-19.65-45.34c-1-1.84-2-3.62-3.06-5.41s-2.09-3.59-3.14-5.39l-3.32-5.29-1.66-2.66-1.74-2.59L581.37,479c-1.19-1.72-2.45-3.39-3.67-5.1-2.4-3.47-5.06-6.74-7.63-10.14-1.27-1.71-2.69-3.3-4-5l-2-2.5c-.67-.84-1.36-1.67-2.08-2.47-2.84-3.22-5.6-6.58-8.6-9.73-5.81-6.52-12.1-12.71-18.52-19-17.5-18.26-40.9-33-66-42.39l-2.34-.91c-.79-.3-1.62-.57-2.42-.85l-4.88-1.67c-3.41-1.07-6.7-2.16-10.27-3.19C442,374,434.59,372,427.08,369.9s-15.35-4.37-23.19-6.83l-6-2-3-1-3-1.09-6-2.21-6-2.45c9.41,4.4,18.61,7.91,27.53,11.14,4.51,1.64,8.82,3.1,13.18,4.59l12.63,4.2,12.07,4.05,5.8,2,5.58,2c1.9.66,3.59,1.38,5.39,2.06l2.66,1,2.55,1.1c3.4,1.5,6.84,2.84,10.16,4.53a246.78,246.78,0,0,1,38.42,22.64c.76.54,1.53,1.06,2.28,1.61l2.23,1.71,4.44,3.41c.75.56,1.48,1.14,2.19,1.75l2.15,1.8,4.31,3.58c2.77,2.52,5.57,5,8.29,7.55l4,3.93c1.34,1.3,2.68,2.59,3.94,4a245.35,245.35,0,0,1,27.79,34.77l1.53,2.3,1.45,2.35,2.87,4.7c1.88,3.15,3.62,6.44,5.43,9.63s3.37,6.56,4.94,9.89l2.3,5,1.14,2.51,1.05,2.55a253.67,253.67,0,0,1,19.28,85c-2.65-2.27-5.38-4.59-7.9-7.07a104.78,104.78,0,0,1-7.22-7.82,73.49,73.49,0,0,1-6.18-8.7c-.89-1.55-1.81-3.1-2.61-4.73a46.94,46.94,0,0,1-2.19-5.07q-3.81-12.93-8.59-25.28C579.49,535,575.91,527,572,519.31c-1-1.92-2.05-3.78-3.07-5.68l-1.55-2.83L565.69,508c-1.11-1.82-2.16-3.72-3.3-5.5L559,497.23l-.85-1.34-.92-1.29L555.36,492c-1.21-1.72-2.39-3.48-3.71-5.13l-3.84-5-4-4.88,10.07-9.25c-19-16.82-38-32-58.14-44.91a292.84,292.84,0,0,0-31-17.45l-4-1.89-2-.95-2.12-.91-4.26-1.83L447.73,398l-2.3-.92-2.41-.91-4.86-1.84-10.32-3.74-22.45-8-6-2.2c-2-.72-4.1-1.57-6.14-2.35-4.07-1.52-8.4-3.35-12.63-5.08-2.15-.91-4.37-1.91-6.54-2.87l-3.28-1.45-3.36-1.61c-2.25-1.09-4.47-2.13-6.73-3.27L353.88,360a204.06,204.06,0,0,1-27.64-18A187.8,187.8,0,0,1,301,318.47a232.85,232.85,0,0,1-20-26c-11.66-17.5-20.34-34.39-28.6-49.18.08,5.14-3.58,3.55-6,3.44l-.37-.88.37.88c-1.07-.05-1.91.19-2.08,1.43a7.34,7.34,0,0,0,.3,2.71,40.23,40.23,0,0,0,1.72,4.89,40.23,40.23,0,0,1-1.72-4.89,7.34,7.34,0,0,1-.3-2.71c.17-1.24,1-1.48,2.08-1.43,3.32,7.7,6.93,15.91,11.12,24.52a294.29,294.29,0,0,0,14.69,26.81,216.05,216.05,0,0,0,20.15,27.45,186.37,186.37,0,0,0,26.19,24.9q3.59,2.76,7.22,5.44,3.62,2.46,7.26,4.84c1.21.78,2.44,1.63,3.64,2.34l3.62,2.12,3.62,2.1c1.21.69,2.43,1.42,3.61,2l7.12,3.67,1.79.91,1.74.81,3.48,1.6c4.7,2.24,9.13,4,13.65,5.89,2.24.91,4.37,1.69,6.56,2.53l3.27,1.24c1.1.42,2.11.76,3.17,1.14l6.3,2.23,6.06,2,3,1,2.92.94,5.8,1.87,11,3.48,5.29,1.68,5,1.63,2.51.82,2.37.8,4.73,1.61,4.44,1.6,2.21.8,2.05.81,4.1,1.61,3.85,1.69a207.09,207.09,0,0,1,29.81,16,220.2,220.2,0,0,1,27.33,20.95A234.5,234.5,0,0,1,541.3,474a240.79,240.79,0,0,0-19.09-19.5l-5.1-4.48c-1.71-1.48-3.5-2.84-5.24-4.28-.88-.71-1.74-1.43-2.63-2.13l-2.7-2-2.7-2c-.9-.67-1.79-1.35-2.73-2l-5.54-3.77c-1.85-1.25-3.77-2.35-5.65-3.54l-2.83-1.77-2.9-1.62c-1.94-1.05-3.83-2.22-5.8-3.21a223.4,223.4,0,0,0-24-10.76c-8.34-3.1-18.25-6.13-29.37-9.42s-23.49-6.83-37-11.43a297,297,0,0,1-43.77-18.53c-1.94-1-3.92-2.19-5.87-3.3s-3.89-2.2-5.86-3.43L326.61,363c-2-1.31-3.92-2.53-5.88-4a191.33,191.33,0,0,1-22.46-18.91,208.31,208.31,0,0,1-18.84-21.47,243.76,243.76,0,0,1-14.75-22.08c-4.28-7.28-8-14.37-11.32-21.23s-6.19-13.38-8.88-19.66c-5.31-12.49-9.67-23.73-13.76-33.4-2.05-4.89-4-9.29-5.94-13.33-1-2.07-1.91-3.89-2.84-5.76-.94-1.72-1.86-3.52-2.77-5s-1.81-3-2.68-4.44l-1.31-1.95c-.42-.69-.87-1.18-1.29-1.8a44.46,44.46,0,0,0-4.95-5.86,66.36,66.36,0,0,0-12.58-10c-10.38-6.39-24.54-11.62-39.75-14.25-1.28-.28-2.92-.47-4.72-.72-.9-.11-1.83-.31-2.81-.38l-2.94-.29c-1.93-.25-4.1-.29-6-.44l-1.4-.09-1.34,0-2.37-.06a76,76,0,0,0-18-6l-2.36-.48q-1.2-.19-2.4-.36c-1.6-.22-3.2-.47-4.83-.62s-3.26-.24-4.9-.34-3.3-.08-5-.1-3.31,0-5,.12-3.34.17-5,.32c-3.36.35-6.71.72-10.08,1.34s-6.74,1.32-10.1,2.09-6.71,1.76-10.05,2.87c.37-4.64-1.63-9.65-4.07-14.68S48,131.91,47,127.05a13.91,13.91,0,0,1,.11-7.11,12.28,12.28,0,0,1,1.66-3.4,16.48,16.48,0,0,1,3.06-3.18c5.06-4.11,14.54-7.83,30.34-9.14-.65-3.38-2-10.14-2.61-13.52-4.25-.33-8.36-.57-12.39-1s-7.92-.91-11.68-1.42S48,87,44.56,86.35q-2.61-.54-5.12-1.14c-1.66-.39-3.29-.79-4.87-1.23a91.73,91.73,0,0,1-16.88-6.26A42,42,0,0,1,5.86,69.36,22,22,0,0,1,.37,58.89,17.64,17.64,0,0,1,.15,53a22.9,22.9,0,0,1,2-6.3c4.11-8.62,14.18-18.3,32.7-26.89A222.73,222.73,0,0,1,69,8.08a257.83,257.83,0,0,1,39.22-6.84A272.61,272.61,0,0,1,151.5.55l5.63.38,5.77.59,5.8.63,5.79.85,5.81.89L186.1,5l5.82,1.16,5.81,1.37a274,274,0,0,1,46.39,15.61,258.4,258.4,0,0,1,45.24,25.52c3.65,2.65,7.27,5.4,10.86,8.18l5.3,4.44,2.64,2.23c.88.74,1.75,1.5,2.61,2.32l5.13,4.81,2.54,2.42c.85.8,1.66,1.7,2.49,2.55,3.26,3.45,6.64,6.88,9.62,10.46s5.92,7.14,8.75,10.74c1.38,1.8,2.67,3.59,4,5.4.66.89,1.34,1.8,2,2.7l1.85,2.67c1.21,1.78,2.51,3.6,3.62,5.35l3.43,5.3,3.22,5.2L359,126l1.49,2.54c11.26,19.93,18.91,38,25.55,52.86,3.28,7.42,6.28,14.06,9.07,19.79s5.37,10.54,7.67,14.37a86.94,86.94,0,0,0,6,8.82,60.69,60.69,0,0,0,4.53,5.19,44.16,44.16,0,0,0,7.12,5.91l1.27.9.64.46.76.47c1,.62,2,1.26,3,1.93,2.35,1.31,4.54,2.71,7.32,4.14,7.25,4.08,16.44,8,27,12.13S483,263.85,496.25,269c3.37,1.35,6.75,2.68,10.15,4.08l10.35,4.5c3.47,1.45,6.81,3.16,10.2,4.78s6.78,3.23,10.06,5l9.91,5.3,9.68,5.66c3.25,1.85,6.35,3.91,9.49,5.91s6.29,4,9.3,6.15a347.82,347.82,0,0,1,65.51,58.06,310.48,310.48,0,0,1,25.83,33.92c1.91,3,3.86,5.87,5.65,8.87s3.55,6,5.29,9,3.27,6.07,4.87,9.1l2.35,4.55,2.18,4.61c1.13,2.19,2.36,4.44,3.67,6.74s2.59,4.73,4,7.17c2.86,4.87,5.7,10.05,8.76,15.3,1.51,2.63,2.94,5.33,4.45,8l2.26,4.06c.75,1.36,1.44,2.74,2.16,4.11q2.16,4.11,4.29,8.23l4,8.22c10.4,21.79,16.8,42.44,14.61,52.9-1,14.37-8,16.64-16.42,16.91a440.71,440.71,0,0,0-30.5-84,410,410,0,0,0-21.87-39.55,398.87,398.87,0,0,0-26.39-37A376.76,376.76,0,0,0,559.34,331a361.08,361.08,0,0,0-49.64-29.86c-4.39-2.09-8.83-4.25-13.24-6.27l-6.59-2.9c-2.19-1-4.29-1.82-6.44-2.73-8.52-3.57-16.77-6.85-24.45-10,7.41,3.4,15.43,6.91,23.7,10.62l6.26,2.84,6.43,3c2.13,1,4.32,2.11,6.48,3.17l6.47,3.22A406.8,406.8,0,0,1,640.07,409.62a379.66,379.66,0,0,1,25.12,37.56A393.88,393.88,0,0,1,685.38,487,422,422,0,0,1,712,570.18c-7.35-.15-14.92,0-20.53,5.12l.76,2.68c.44,1.67,1,4,1.72,6.56,1.4,5.13,2.78,11.35,3.77,15.48A59.73,59.73,0,0,1,693.33,612a35.91,35.91,0,0,1-5.75,8.35,24.94,24.94,0,0,1-14.08,7.76,35.78,35.78,0,0,1-15.77-1.14,72,72,0,0,1-15.56-6.68l-6.66-4.79C633.19,613.78,630.73,612.07,628.29,610.25Z"/></g></g></svg>